<?xml version="1.0" encoding="UTF-8"?>
<svg id="Layer_1" data-name="Layer 1" xmlns="http://www.w3.org/2000/svg" viewBox="0 0 998.57 768">
  <defs>
    <style>
      .cls-1 {
        fill: #60a5fa;
      }
    </style>
  </defs>
  <path class="cls-1" d="M998.57,495.08c-1.87-2.65-.78-5.65-.94-8.49-1.21-20.65-1.2-41.41-3.67-61.95-5.87-48.84-18.18-96.29-33.96-142.75-24.66-72.59-59.27-140.36-100.98-204.63-6.27-9.66-13.61-16.77-24.67-20.66-8.84-3.11-17.41-7.12-26.14-10.65-50.74-20.48-103.04-35.46-156.91-45.13-9.52-1.71-15.69,.99-20.11,9.21-4.91,9.15-9.74,18.33-13.72,27.95-5.15,12.47-7.29,13.81-20.48,12.26-28.03-3.29-56.11-5.52-84.35-6-36.39-.61-72.59,1.66-108.7,5.89-14.89,1.74-15.25,1.29-21.36-12.06-4.73-10.33-9.93-20.4-15.79-30.18-3.95-6.61-9.19-8.69-16.29-7.64-3.21,.48-6.4,1.09-9.58,1.71-56.25,10.99-110.74,27.74-163.84,49.25-16.85,6.83-30.88,15.58-40.85,32.17-27.1,45.13-52.98,90.78-73.56,139.32C22.34,317.84-1.07,416.44,.04,520.31c.39,35.98,.27,71.95,1.64,107.92,.35,9.06,3.25,14.85,10.54,20.02,72.55,51.46,150.7,91.64,235.71,118.27,9.24,2.9,15.08-.58,19.9-7.55,7.95-11.47,16.07-22.87,23.12-34.89,7.05-12.02,14.51-23.86,20.39-36.53,4.49-9.68,2.81-14.09-6.85-18.55-3.82-1.77-7.81-3.2-11.7-4.83-16.19-6.77-31.7-14.94-47.22-23.07-2.83-1.48-6.2-3.16-5.22-7.23,.96-3.97,4.36-5.46,8.06-6.03,4.43-.68,8.17,1.51,12.04,3.2,66.75,29.04,136.59,45.61,209.15,49.56,49.06,2.67,97.92-.88,146.18-10.8,42.74-8.78,84.19-21.66,124.17-39.21,3.86-1.69,7.69-3.71,12.12-2.66,3.32,.78,6.22,2.36,6.93,6.01,.68,3.48-1.86,5.28-4.41,6.84-2.22,1.36-4.59,2.43-6.89,3.63-17.57,9.15-35.54,17.41-53.83,25.03-8.72,3.63-10.39,8.78-6.28,17,12.33,24.74,26.7,48.26,42.88,70.66,9.06,12.56,10.41,12.79,25.18,8.12,49.37-15.61,96.64-36.2,142.18-60.7,31.18-16.77,60.82-36.07,89.79-56.42,6.51-4.58,9.34-10.03,9.16-17.98-.19-8.65,.31-17.35,1.8-25.93v-11.69c-1.51-2.6-1.51-5.19,0-7.79v-11.69c-1.54-3.9-1.54-7.79,0-11.69v-25.32c-1.98-3.23-.52-6.79-.97-10.16,.46-4.4-.99-8.93,.97-13.22v-17.53Zm-604.47,1.74c-33.63,33.9-84.4,34.12-118.51,.7-41.4-40.56-40.95-112.28,.94-152.36,46.26-44.25,119.8-23.65,141.46,39.64,4.02,11.75,6.26,23.81,5.99,36.31-.37,29.01-9.14,54.79-29.89,75.71Zm332.03-.44c-33.34,34.13-84.16,34.75-118.56,1.69-41.86-40.22-41.6-113.15,.54-153.08,46.21-43.79,119.13-23.6,141.02,39.16,2.23,6.39,3.8,13.08,4.98,19.76,1.01,5.71,1.02,11.6,1.3,15.31-.26,30.87-8.96,56.36-29.29,77.17Z"/>
</svg>