<?xml version="1.0" encoding="UTF-8"?>
<svg id="Layer_1" data-name="Layer 1" xmlns="http://www.w3.org/2000/svg" viewBox="0 0 765.97 752.35">
  <defs>
    <style>
      .cls-1 {
        fill: #60a5fa;
      }
    </style>
  </defs>
  <path class="cls-1" d="M765.97,404.76c-1.41,12.09-2.61,24.2-4.27,36.25-7.44,54.19-25.97,104.39-55.13,150.55-36.06,57.1-83.71,102.09-143.31,133.78-18.18,9.67-37.44,17.46-56.67,24.91-16.69,6.47-28.44-2.54-28.45-20.85-.02-32.98,.33-65.95,.4-98.93,.04-18.38-1.98-36.5-10.45-53.12-3.79-7.43-8.95-14.15-13.67-21.47,13.39-2.4,27.17-4.27,40.67-7.39,38.03-8.81,71.92-24.95,96.62-56.73,17.92-23.06,27.29-49.73,31.86-78.13,3.77-23.46,5.07-47.13,1.99-70.88-3.62-27.98-14.5-52.81-32.61-74.3-3.89-4.62-4.28-8.35-2.61-13.94,9.23-30.88,5.78-61.24-5.46-90.9-.8-2.12-5.68-4.26-8.27-3.85-12.22,1.95-25.1,2.91-36.26,7.7-19.12,8.21-37.05,19.2-55.7,28.56-3.58,1.79-8.55,2.83-12.32,1.9-59.75-14.6-119.38-14.5-179.11,.08-3.54,.86-8.46,0-11.58-1.94-22.05-13.74-44.34-26.98-69.83-33.26-7.9-1.95-16.19-2.41-24.34-3.2-3.81-.37-6.06,1.58-7.44,5.61-10.41,30.54-13.49,61.24-3.59,92.58,.72,2.28,.08,6.06-1.45,7.83-32.5,37.67-39.86,81.99-34.89,129.76,2.47,23.72,7.3,46.76,17.4,68.54,16.61,35.8,44.09,59.71,80.21,74.38,21.4,8.69,43.77,13.3,66.54,16.36,2.43,.33,4.84,.87,6.61,1.19-5.23,9.14-10.67,17.91-15.32,27.08-2.33,4.59-4.04,9.83-4.55,14.93-.79,7.92-4.87,11.51-12.1,13.74-23.88,7.34-47.38,9.5-70.2-3.37-12.47-7.03-21.85-17.28-29.24-29.39-8.45-13.84-18.67-25.97-32.96-34.01-11.02-6.2-22.71-10.63-35.63-8.04-3.29,.66-7.51,2.85-8.73,5.52-.88,1.93,2.09,6.13,4.11,8.72,1.95,2.5,4.67,4.56,7.4,6.24,22.07,13.61,34.98,34.31,44.54,57.58,15.2,36.99,44.25,54.09,82.61,56.3,15.03,.87,30.24-1.41,46.09-2.3,.03,.13,.52,1.46,.53,2.8,.26,19.23,.66,38.47,.61,57.7-.05,18.77-12.16,26.86-30.01,20.46-95.5-34.29-167.31-96.4-214.54-186.12C9.82,499.78-4.58,431.08,1.27,358.94,11.75,229.63,71.93,129.07,180.61,59.1,257.65,9.48,343.23-9.6,433.73,4.54c157.14,24.56,261.18,114.8,314.11,264.5,9.84,27.82,14.82,56.93,16.79,86.46,.16,2.45,.88,4.86,1.34,7.29v41.97Z"/>
</svg>