<?xml version="1.0" encoding="UTF-8"?>
<svg id="Layer_1" data-name="Layer 1" xmlns="http://www.w3.org/2000/svg" viewBox="0 0 759.94 761.11">
  <defs>
    <style>
      .cls-1 {
        fill: #60a5fa;
      }
    </style>
  </defs>
  <path class="cls-1" d="M265.91,0c75.85,0,151.71,0,227.56,0,4.41,.41,8.82,.82,13.23,1.22,28.58,2.58,57.67,2.62,85.63,8.24,74.05,14.89,125.63,57.89,151.66,129.7,12.59,34.73,15.51,71.03,15.62,107.56,.27,87.25,.67,174.5-.25,261.74-.29,27.62-2.2,55.66-7.49,82.7-14.24,72.9-55.92,124.47-125.85,151.7-33.73,13.14-69.28,16.64-105.07,17-80.3,.8-160.6,1.56-240.9,1.12-39.57-.22-79.34-.37-118.25-9.81-63.02-15.29-109.84-51.02-137.68-110.04C7.01,604.82,1.77,565.75,1.35,526.11,.48,443.83-.43,361.54,.22,279.26c.28-34.58,2.37-69.45,7.42-103.63C15.52,122.36,41.18,78.13,84.76,45.43,122.11,17.41,165.35,6.27,211.08,3.03c18.25-1.29,36.55-2.04,54.82-3.03Zm114.67,694.21c0-.39,.02-.78,.03-1.17,20.08,0,40.18,.6,60.23-.12,43.05-1.54,86.4-1.15,129.05-6.36,56.26-6.87,94.78-38.71,111.8-94.03,7.81-25.37,9.14-51.69,9.44-77.95,.78-67.41,1.75-134.83,1.15-202.24-.36-40.08-1.37-80.39-5.94-120.15-7.04-61.16-45.8-102.64-106.06-114.63-26.28-5.23-53.59-6.78-80.48-7.23-66.41-1.12-132.84-.91-199.27-.68-38.13,.13-76.37-.37-114.16,6.27-57.75,10.14-97.37,46.76-109.15,104.23-5.09,24.8-6.78,50.59-7.32,75.98-1.3,61.2-1.78,122.44-1.11,183.65,.47,42.82,1.72,85.77,5.71,128.37,3.71,39.56,21.81,72.84,55.43,95.97,25.95,17.85,55.64,24.68,86.41,25.85,54.72,2.08,109.49,2.9,164.24,4.25Z"/>
  <path class="cls-1" d="M184.69,381.02c-.37-107.69,87.62-195.72,195.64-195.73,107.88,0,194.82,86.67,195.56,194.96,.73,107.62-87.01,195.83-195.16,196.21-107.74,.38-195.67-87.29-196.04-195.44Zm195.25,126.53c70.25,.2,126.82-55.93,127.15-126.13,.33-70.19-55.79-126.92-125.96-127.34-70.49-.42-127.37,56.01-127.52,126.52-.15,70.16,56.17,126.76,126.33,126.95Z"/>
  <path class="cls-1" d="M584.73,132c25.55,.5,45.11,21.14,44.44,46.88-.65,25.08-21.2,44.62-46.5,44.21-25.14-.41-45.14-21.5-44.57-47.02,.55-24.9,21.36-44.57,46.63-44.07Z"/>
</svg>